<svg width="25" height="27" viewBox="0 0 25 27" fill="none" xmlns="http://www.w3.org/2000/svg">
<g clip-path="url(#clip0_467_1758)">
<path d="M12.4999 0.260498C13.5722 0.260428 14.6038 0.670672 15.3832 1.40707C16.1626 2.14348 16.6307 3.15021 16.6914 4.22075L16.6978 4.45841H23.4791C23.7245 4.45849 23.9608 4.55173 24.1402 4.7193C24.3195 4.88686 24.4286 5.11626 24.4453 5.36113C24.462 5.60601 24.3852 5.84811 24.2303 6.03851C24.0754 6.22891 23.854 6.35342 23.6108 6.38687L23.4791 6.39591H22.4509L20.7976 23.2134C20.7147 24.0518 20.3366 24.8335 19.7306 25.4189C19.1247 26.0043 18.3304 26.3552 17.4896 26.409L17.2623 26.4167H7.73754C6.89468 26.4167 6.07929 26.117 5.43709 25.5711C4.79489 25.0252 4.36774 24.2687 4.23196 23.4369L4.20225 23.2121L2.54763 6.39591H1.52075C1.28665 6.3959 1.06048 6.31113 0.88405 6.15726C0.707623 6.00339 0.592881 5.79084 0.561044 5.55891L0.552002 5.42716C0.552012 5.19307 0.63679 4.96689 0.790659 4.79046C0.944528 4.61404 1.15708 4.49929 1.389 4.46746L1.52075 4.45841H8.302C8.302 3.34506 8.74428 2.2773 9.53154 1.49004C10.3188 0.702777 11.3866 0.260498 12.4999 0.260498V0.260498ZM20.5044 6.39591H4.49417L6.13071 23.0222C6.16695 23.3932 6.33043 23.7402 6.59342 24.0044C6.8564 24.2686 7.20268 24.4336 7.5735 24.4715L7.73754 24.4792H17.2623C18.0373 24.4792 18.6948 23.9303 18.8446 23.185L18.8704 23.0222L20.5031 6.39591H20.5044ZM14.7603 9.948C14.9944 9.94801 15.2206 10.0328 15.397 10.1867C15.5735 10.3405 15.6882 10.5531 15.72 10.785L15.7291 10.9167V19.9584C15.729 20.2039 15.6358 20.4401 15.4682 20.6195C15.3006 20.7988 15.0712 20.9079 14.8264 20.9246C14.5815 20.9413 14.3394 20.8645 14.149 20.7096C13.9586 20.5547 13.8341 20.3333 13.8006 20.0902L13.7916 19.9584V10.9167C13.7916 10.6598 13.8937 10.4134 14.0753 10.2317C14.257 10.0501 14.5034 9.948 14.7603 9.948ZM10.2395 9.948C10.4736 9.94801 10.6998 10.0328 10.8762 10.1867C11.0526 10.3405 11.1674 10.5531 11.1992 10.785L11.2083 10.9167V19.9584C11.2082 20.2039 11.1149 20.4401 10.9474 20.6195C10.7798 20.7988 10.5504 20.9079 10.3055 20.9246C10.0607 20.9413 9.81856 20.8645 9.62816 20.7096C9.43776 20.5547 9.31325 20.3333 9.27979 20.0902L9.27075 19.9584V10.9167C9.27075 10.6598 9.37282 10.4134 9.55449 10.2317C9.73617 10.0501 9.98257 9.948 10.2395 9.948ZM12.4999 2.198C11.9326 2.19802 11.3861 2.41134 10.9688 2.79563C10.5515 3.17991 10.2939 3.70705 10.2473 4.27241L10.2395 4.45841H14.7603C14.7603 3.85891 14.5222 3.28397 14.0983 2.86006C13.6744 2.43615 13.0994 2.198 12.4999 2.198Z" fill="white"/>
</g>
<defs>
<clipPath id="clip0_467_1758">
<rect width="25" height="27" fill="white"/>
</clipPath>
</defs>
</svg>
