<svg width="45" height="48" viewBox="0 0 45 48" fill="none" xmlns="http://www.w3.org/2000/svg">
<path d="M1.0001 46.6C1.0001 46.6 -0.0999031 20.5 15.3001 24C15.3001 24 20.0001 24.7 20.4001 31.7C20.3001 39 25.1001 45.8 27.6001 46.4C21.1001 46.6 1.0001 46.6 1.0001 46.6Z" stroke="#814486" stroke-miterlimit="10" stroke-linejoin="round"/>
<path d="M5.2998 27.5L20.3998 34.2" stroke="#814486" stroke-miterlimit="10" stroke-linejoin="round"/>
<path d="M8.1001 39.2C8.1001 39.2 8.4001 43.4999 9.9001 46.5999" stroke="#814486" stroke-miterlimit="10" stroke-linecap="round" stroke-linejoin="round"/>
<path d="M15.2002 40.9C15.2002 40.9 15.9002 43.8 18.0002 46.2" stroke="#814486" stroke-miterlimit="10" stroke-linecap="round" stroke-linejoin="round"/>
<path d="M15.2002 24L28.7002 1" stroke="#814486" stroke-miterlimit="10" stroke-linecap="round" stroke-linejoin="round"/>
<path d="M28.2998 29H36.5998" stroke="#814486" stroke-miterlimit="10" stroke-linecap="round" stroke-linejoin="round"/>
<path d="M31.9004 35.9H40.6004" stroke="#814486" stroke-miterlimit="10" stroke-linecap="round" stroke-linejoin="round"/>
<path d="M35.7002 42.9C35.8002 43 43.9002 42.9 43.9002 42.9" stroke="#814486" stroke-miterlimit="10" stroke-linecap="round" stroke-linejoin="round"/>
</svg>
