<svg width="36" height="74" viewBox="0 0 36 74" fill="none" xmlns="http://www.w3.org/2000/svg">
<path d="M34.947 18.149C34.947 8.89371 27.347 1.23413 17.847 1.23413C11.0387 1.23413 5.02204 5.22349 2.33037 10.9682C2.33037 10.9682 -0.519628 15.7554 3.75537 17.8299C8.03037 19.9043 9.29703 16.5533 11.197 14.6384C13.4137 12.0852 14.522 10.3299 19.4304 10.9682C24.497 11.6065 27.5054 18.3086 24.972 22.298C22.4387 26.2873 17.5304 26.1277 16.2637 26.1277C14.997 26.1277 9.29703 25.649 6.60537 26.9256C3.9137 28.2022 0.430372 31.5533 0.588706 38.2554C0.747039 44.9575 0.588706 73.0426 0.588706 73.0426H35.2637L34.947 18.149Z" stroke="#B3B3B3" stroke-miterlimit="10" stroke-linecap="round" stroke-linejoin="round"/>
<path d="M18.0053 64.5851C23.8641 64.5851 28.6136 59.7984 28.6136 53.8936C28.6136 47.9889 23.8641 43.2021 18.0053 43.2021C12.1465 43.2021 7.39697 47.9889 7.39697 53.8936C7.39697 59.7984 12.1465 64.5851 18.0053 64.5851Z" stroke="#EB5757" stroke-miterlimit="10" stroke-linecap="round" stroke-linejoin="round"/>
<path d="M10.4053 61.2342L25.1303 46.3938" stroke="#EB5757" stroke-miterlimit="10" stroke-linecap="round" stroke-linejoin="round"/>
</svg>
