<svg width="51" height="43" viewBox="0 0 51 43" fill="none" xmlns="http://www.w3.org/2000/svg">
<path d="M27.5884 31.152C29.4158 31.8829 31.3346 32.2484 33.4361 32.2484C35.9944 32.2484 38.37 31.7002 40.4715 30.6038" stroke="#814486" stroke-miterlimit="10" stroke-linecap="round" stroke-linejoin="round"/>
<path d="M17.812 15.0709C18.6343 7.21314 25.213 1 33.3449 1C41.9336 1 48.9691 8.03546 48.9691 16.6242C48.9691 18.9998 48.4208 21.1927 47.5071 23.2028" stroke="#814486" stroke-miterlimit="10" stroke-linecap="round" stroke-linejoin="round"/>
<path d="M47.5072 23.2028L49.7001 33.3448L40.3804 30.6037" stroke="#814486" stroke-miterlimit="10" stroke-linecap="round" stroke-linejoin="round"/>
<path d="M30.6953 24.8474H35.081" stroke="#814486" stroke-miterlimit="10" stroke-linecap="round" stroke-linejoin="round"/>
<path d="M43.0298 19.8221H25.4868" stroke="#814486" stroke-miterlimit="10" stroke-linecap="round" stroke-linejoin="round"/>
<path d="M24.3906 14.7054H43.0301" stroke="#814486" stroke-miterlimit="10" stroke-linecap="round" stroke-linejoin="round"/>
<path d="M24.3906 9.58875H43.0301" stroke="#814486" stroke-miterlimit="10" stroke-linecap="round" stroke-linejoin="round"/>
<path d="M8.94922 39.6494C10.6852 40.5631 12.6954 41.0199 14.7969 41.0199C22.1064 41.0199 27.9541 35.1722 27.9541 27.8627C27.9541 20.5531 22.0151 14.7054 14.7969 14.7054C7.57867 14.7054 1.63965 20.5531 1.63965 27.8627C1.63965 29.7814 2.00514 31.5175 2.7361 33.1621" stroke="#814486" stroke-miterlimit="10" stroke-linecap="round" stroke-linejoin="round"/>
<path d="M8.94914 39.6494L1 41.9336L2.73602 33.1621" stroke="#814486" stroke-miterlimit="10" stroke-linecap="round" stroke-linejoin="round"/>
<path d="M7.30469 23.2028H22.9289" stroke="#814486" stroke-miterlimit="10" stroke-linecap="round" stroke-linejoin="round"/>
<path d="M7.396 28.2281H22.9288" stroke="#814486" stroke-miterlimit="10" stroke-linecap="round" stroke-linejoin="round"/>
<path d="M7.396 33.3448H14.6142" stroke="#814486" stroke-miterlimit="10" stroke-linecap="round" stroke-linejoin="round"/>
</svg>
