<svg width="15" height="18" viewBox="0 0 15 18" fill="none" xmlns="http://www.w3.org/2000/svg">
<g clip-path="url(#clip0_405_4841)">
<path d="M13.5868 7.82194V15.5871C13.5868 16.0947 13.3851 16.5815 13.0262 16.9404C12.6673 17.2993 12.1805 17.5009 11.6729 17.5009H2.74151C2.23392 17.5009 1.74712 17.2993 1.3882 16.9404C1.02928 16.5815 0.827637 16.0947 0.827637 15.5871V2.82793C0.827637 2.32034 1.02928 1.83354 1.3882 1.47462C1.74712 1.1157 2.23392 0.914063 2.74151 0.914062H6.6789C7.01717 0.914114 7.34158 1.0485 7.58081 1.28767L13.2132 6.92003C13.4523 7.15925 13.5867 7.48366 13.5868 7.82194Z" stroke="#814486" stroke-linejoin="round"/>
<path d="M7.20752 1.23291V6.01759C7.20752 6.35598 7.34195 6.68051 7.58123 6.91979C7.82051 7.15907 8.14504 7.2935 8.48343 7.2935H13.2681" stroke="#814486" stroke-linecap="round" stroke-linejoin="round"/>
<path d="M2.89404 9.02588H10.9346" stroke="#814486" stroke-linecap="round"/>
<path d="M2.89404 10.9888H10.9346" stroke="#814486" stroke-linecap="round"/>
<path d="M2.89404 12.9893H10.9346" stroke="#814486" stroke-linecap="round"/>
</g>
<defs>
<clipPath id="clip0_405_4841">
<rect width="15" height="18" fill="white"/>
</clipPath>
</defs>
</svg>
