<svg width="42" height="45" viewBox="0 0 42 45" fill="none" xmlns="http://www.w3.org/2000/svg">
<path d="M0.5 2C0.5 1.17157 1.17157 0.5 2 0.5H40C40.8284 0.5 41.5 1.17157 41.5 2V43C41.5 43.8284 40.8284 44.5 40 44.5H2C1.17157 44.5 0.5 43.8284 0.5 43V2Z" stroke="#814486"/>
<path d="M0.0078125 9.54102H41.6603" stroke="#814486"/>
<circle cx="21.1764" cy="25.1325" r="11.11" stroke="#814486"/>
<path d="M22.1768 17.5918C21.9006 17.5918 21.6768 17.8157 21.6768 18.0918C21.6768 18.3679 21.9006 18.5918 22.1768 18.5918V17.5918ZM27.7173 24.1324C27.7173 24.4085 27.9412 24.6324 28.2173 24.6324C28.4935 24.6324 28.7173 24.4085 28.7173 24.1324H27.7173ZM22.1768 18.5918C25.2367 18.5918 27.7173 21.0724 27.7173 24.1324H28.7173C28.7173 20.5201 25.789 17.5918 22.1768 17.5918V18.5918Z" fill="#814486"/>
<rect x="4" y="4" width="4" height="1.5" rx="0.5" fill="#814486"/>
<rect x="35" y="4" width="4" height="1.5" rx="0.5" fill="#814486"/>
<rect x="29" y="4" width="4" height="1.5" rx="0.5" fill="#814486"/>
<rect x="23" y="4" width="4" height="1.5" rx="0.5" fill="#814486"/>
</svg>
