<svg width="16" height="9" viewBox="0 0 16 9" fill="none" xmlns="http://www.w3.org/2000/svg">
<path d="M0.322719 9V0.732H3.37072C4.00272 0.732 4.52272 0.832 4.93072 1.032C5.33872 1.224 5.64272 1.52 5.84272 1.92C6.04272 2.32 6.14272 2.836 6.14272 3.468C6.14272 4.092 6.04272 4.616 5.84272 5.04C5.64272 5.464 5.33872 5.784 4.93072 6C4.52272 6.216 4.00272 6.324 3.37072 6.324H1.47472V9H0.322719ZM1.47472 5.352H3.35872C3.92672 5.352 4.33472 5.192 4.58272 4.872C4.83872 4.544 4.96672 4.076 4.96672 3.468C4.96672 2.86 4.83872 2.416 4.58272 2.136C4.33472 1.856 3.92672 1.716 3.35872 1.716H1.47472V5.352ZM7.44772 9V0.732H9.43972L11.5637 7.284L13.6757 0.732H15.6797V9H14.5277V2.052H14.3597L12.1637 8.724H10.9637L8.77972 2.052H8.59972V9H7.44772Z" fill="#666666"/>
</svg>
