<svg width="28" height="23" viewBox="0 0 28 23" fill="none" xmlns="http://www.w3.org/2000/svg">
<g clip-path="url(#clip0_467_1764)">
<path d="M6.37661 2.875C6.37661 2.1125 6.67161 1.38124 7.19671 0.842068C7.72181 0.302901 8.43401 0 9.17661 0H18.5099C19.2526 0 19.9647 0.302901 20.4898 0.842068C21.0149 1.38124 21.3099 2.1125 21.3099 2.875V3.83333H23.1766C24.1668 3.83333 25.1163 4.2372 25.8165 4.95609C26.5166 5.67498 26.9099 6.65 26.9099 7.66667V16.2917C26.9099 17.0542 26.6149 17.7854 26.0898 18.3246C25.5647 18.8638 24.8526 19.1667 24.1099 19.1667H21.4966V20.125C21.4966 20.8875 21.2016 21.6188 20.6765 22.1579C20.1514 22.6971 19.4392 23 18.6966 23H9.17661C8.43401 23 7.72181 22.6971 7.19671 22.1579C6.67161 21.6188 6.37661 20.8875 6.37661 20.125V19.1667H3.57661C2.834 19.1667 2.12181 18.8638 1.59671 18.3246C1.07161 17.7854 0.776611 17.0542 0.776611 16.2917V7.66667C0.776611 6.65 1.16994 5.67498 1.87008 4.95609C2.57022 4.2372 3.5198 3.83333 4.50994 3.83333H6.37661V2.875ZM19.4433 3.83333V2.875C19.4433 2.62083 19.3449 2.37708 19.1699 2.19736C18.9949 2.01763 18.7575 1.91667 18.5099 1.91667H9.17661C8.92908 1.91667 8.69168 2.01763 8.51665 2.19736C8.34161 2.37708 8.24328 2.62083 8.24328 2.875V3.83333H19.4433ZM6.37661 5.75H4.50994C4.01487 5.75 3.54008 5.95193 3.19001 6.31138C2.83994 6.67082 2.64328 7.15833 2.64328 7.66667V16.2917C2.64328 16.5458 2.74161 16.7896 2.91665 16.9693C3.09168 17.149 3.32908 17.25 3.57661 17.25H6.37661V16.2917C6.37661 15.5292 6.67161 14.7979 7.19671 14.2587C7.72181 13.7196 8.43401 13.4167 9.17661 13.4167H18.6966C19.4392 13.4167 20.1514 13.7196 20.6765 14.2587C21.2016 14.7979 21.4966 15.5292 21.4966 16.2917V17.25H24.1099C24.3575 17.25 24.5949 17.149 24.7699 16.9693C24.9449 16.7896 25.0433 16.5458 25.0433 16.2917V7.66667C25.0433 7.15833 24.8466 6.67082 24.4965 6.31138C24.1465 5.95193 23.6717 5.75 23.1766 5.75H6.37661ZM9.17661 15.3333C8.92908 15.3333 8.69168 15.4343 8.51665 15.614C8.34161 15.7937 8.24328 16.0375 8.24328 16.2917V20.125C8.24328 20.3792 8.34161 20.6229 8.51665 20.8026C8.69168 20.9824 8.92908 21.0833 9.17661 21.0833H18.6966C18.9441 21.0833 19.1815 20.9824 19.3566 20.8026C19.5316 20.6229 19.6299 20.3792 19.6299 20.125V16.2917C19.6299 16.0375 19.5316 15.7937 19.3566 15.614C19.1815 15.4343 18.9441 15.3333 18.6966 15.3333H9.17661Z" fill="white"/>
</g>
<defs>
<clipPath id="clip0_467_1764">
<rect width="28" height="23" fill="white"/>
</clipPath>
</defs>
</svg>
