<svg width="39" height="39" viewBox="0 0 39 39" fill="none" xmlns="http://www.w3.org/2000/svg">
<path d="M5.67379 11.5159C4.23571 14.0326 3.33691 16.9087 3.33691 19.9646C3.33691 29.1323 10.7969 36.5923 19.9646 36.5923C29.1323 36.5923 36.5923 29.1323 36.5923 19.9646C36.5923 16.8188 35.6935 13.9427 34.2555 11.4261C32.7275 8.81956 30.4805 6.66245 27.7841 5.31426C25.4473 4.05595 22.7509 3.33691 19.9646 3.33691C16.9986 3.33691 14.2123 4.14583 11.7856 5.49402" stroke="#814486" stroke-miterlimit="10" stroke-linecap="round" stroke-linejoin="round"/>
<path d="M19.7847 10.4374V19.5152H25.9863" stroke="#814486" stroke-miterlimit="10" stroke-linecap="round" stroke-linejoin="round"/>
<path d="M11.7854 5.49397C9.2688 6.93205 7.1117 8.99928 5.58375 11.5159C3.157 11.0665 1.26953 8.9094 1.26953 6.30289C1.26953 3.42675 3.6064 1 6.48254 1C9.26881 1.08988 11.4259 2.97735 11.7854 5.49397Z" stroke="#814486" stroke-miterlimit="10" stroke-linecap="round" stroke-linejoin="round"/>
<path d="M34.2555 11.426C36.5025 10.8867 38.2102 8.81952 38.2102 6.30289C38.2102 3.42675 35.8733 1 32.9073 1C30.3907 1 28.2336 2.79759 27.7842 5.22434" stroke="#814486" stroke-miterlimit="10" stroke-linecap="round" stroke-linejoin="round"/>
<path d="M7.83085 31.3793L1 38.2101" stroke="#814486" stroke-miterlimit="10" stroke-linecap="round" stroke-linejoin="round"/>
<path d="M31.7388 31.6489L38.4797 38.3" stroke="#814486" stroke-miterlimit="10" stroke-linecap="round" stroke-linejoin="round"/>
</svg>
