<svg width="20" height="14" viewBox="0 0 20 14" fill="none" xmlns="http://www.w3.org/2000/svg">
<path d="M0.328249 6.32825C-0.0427495 6.69925 -0.0427495 7.30075 0.328249 7.67175L6.37401 13.7175C6.74501 14.0885 7.34652 14.0885 7.71751 13.7175C8.08851 13.3465 8.08851 12.745 7.71751 12.374L2.3435 7L7.71751 1.62599C8.08851 1.25499 8.08851 0.653484 7.71751 0.282485C7.34652 -0.0885124 6.74501 -0.0885124 6.37401 0.282485L0.328249 6.32825ZM19 7.95C19.5247 7.95 19.95 7.52467 19.95 7C19.95 6.47533 19.5247 6.05 19 6.05V7.95ZM1 7.95H19V6.05H1V7.95Z" fill="#814486"/>
</svg>
