<svg width="22" height="18" viewBox="0 0 22 18" fill="none" xmlns="http://www.w3.org/2000/svg">
<path d="M20.7266 15.0749H21.1766H20.7266ZM20.7266 2.9249H21.1766H20.7266ZM0.968363 9.3181C0.792627 9.14236 0.792627 8.85744 0.968363 8.6817L3.83215 5.81792C4.00788 5.64219 4.2928 5.64219 4.46854 5.81792C4.64428 5.99366 4.64428 6.27858 4.46854 6.45432L1.92296 8.9999L4.46854 11.5455C4.64428 11.7212 4.64428 12.0061 4.46854 12.1819C4.2928 12.3576 4.00788 12.3576 3.83215 12.1819L0.968363 9.3181ZM15.0566 8.5499C15.3051 8.5499 15.5066 8.75137 15.5066 8.9999C15.5066 9.24843 15.3051 9.4499 15.0566 9.4499V8.5499ZM9.02656 13.0499V15.0749H8.12656V13.0499H9.02656ZM9.02656 15.0749C9.02656 15.4926 9.1925 15.8932 9.48787 16.1886L8.85147 16.825C8.38732 16.3608 8.12656 15.7313 8.12656 15.0749H9.02656ZM9.48787 16.1886C9.78324 16.484 10.1838 16.6499 10.6016 16.6499V17.5499C9.94515 17.5499 9.31563 17.2891 8.85147 16.825L9.48787 16.1886ZM10.6016 16.6499H18.7016V17.5499H10.6016V16.6499ZM18.7016 16.6499C19.1193 16.6499 19.5199 16.484 19.8153 16.1886L20.4517 16.825C19.9875 17.2891 19.358 17.5499 18.7016 17.5499V16.6499ZM19.8153 16.1886C20.1106 15.8932 20.2766 15.4926 20.2766 15.0749H21.1766C21.1766 15.7313 20.9158 16.3608 20.4517 16.825L19.8153 16.1886ZM20.2766 15.0749V2.9249H21.1766V15.0749H20.2766ZM20.2766 2.9249C20.2766 2.50719 20.1106 2.10658 19.8153 1.81121L20.4517 1.17481C20.9158 1.63897 21.1766 2.26849 21.1766 2.9249H20.2766ZM19.8153 1.81121C19.5199 1.51584 19.1193 1.3499 18.7016 1.3499V0.449902C19.358 0.449902 19.9875 0.710661 20.4517 1.17481L19.8153 1.81121ZM18.7016 1.3499H11.0066V0.449902H18.7016V1.3499ZM11.0066 1.3499C10.5593 1.3499 10.0476 1.53551 9.64974 1.84726C9.25014 2.16035 9.02656 2.54867 9.02656 2.9249H8.12656C8.12656 2.18283 8.55883 1.55865 9.09466 1.13882C9.6322 0.717639 10.3355 0.449902 11.0066 0.449902V1.3499ZM9.02656 2.9249V4.9499H8.12656V2.9249H9.02656ZM9.02656 4.9499V13.0499H8.12656V4.9499H9.02656ZM15.0566 9.4499H1.28656V8.5499H15.0566V9.4499Z" fill="#814486"/>
</svg>
