<svg width="24" height="47" viewBox="0 0 24 47" fill="none" xmlns="http://www.w3.org/2000/svg">
<path d="M22.7033 12C22.7033 6.20002 17.9033 1.40002 11.9033 1.40002C7.60328 1.40002 3.80329 3.90002 2.10329 7.50002C2.10329 7.50002 0.30329 10.5 3.00329 11.8C5.70329 13.1 6.50329 11 7.70329 9.80002C9.10329 8.20002 9.80328 7.10002 12.9033 7.50002C16.1033 7.90002 18.0033 12.1 16.4033 14.6C14.8033 17.1 11.7033 17 10.9033 17C10.1033 17 6.50329 16.7 4.80329 17.5C3.10329 18.3 0.90329 20.4 1.00329 24.6C1.10329 28.8 1.00329 46.4 1.00329 46.4H22.9033L22.7033 12Z" stroke="#814486" stroke-miterlimit="10" stroke-linecap="round" stroke-linejoin="round"/>
<path d="M12.0032 41.1001C15.7035 41.1001 18.7032 38.1004 18.7032 34.4001C18.7032 30.6998 15.7035 27.7001 12.0032 27.7001C8.30292 27.7001 5.30322 30.6998 5.30322 34.4001C5.30322 38.1004 8.30292 41.1001 12.0032 41.1001Z" stroke="#814486" stroke-miterlimit="10" stroke-linecap="round" stroke-linejoin="round"/>
<path d="M7.20312 39.0001L16.5031 29.7001" stroke="#814486" stroke-miterlimit="10" stroke-linecap="round" stroke-linejoin="round"/>
</svg>
