<svg width="290" height="201" viewBox="0 0 290 201" fill="none" xmlns="http://www.w3.org/2000/svg">
<path d="M71.4491 198.096C70.8888 198.096 68.9274 198.096 66.966 197.536C64.1641 196.695 63.6038 192.772 63.3236 190.531L58.5603 147.942C58.5603 146.821 58.2801 145.7 57.4395 145.7C56.5989 145.7 56.3188 146.541 56.0386 147.101L35.3044 189.971L13.7295 147.101C13.4493 146.261 12.889 145.98 12.3286 145.98C11.7682 145.98 11.2078 146.541 11.2078 147.381L6.16439 192.492V192.772C5.8842 195.294 5.60402 197.536 3.64268 198.096C2.52191 198.376 2.24168 198.376 1.6813 198.376C1.12091 198.376 0.560547 198.657 0.560547 198.937C0.560547 199.497 1.12095 199.777 2.24172 199.777C3.36249 199.777 5.32376 199.777 6.72472 199.777C7.5653 199.777 8.1257 199.777 8.40589 199.777C8.68609 199.777 9.24647 199.777 9.80685 199.777C11.2078 199.777 13.1691 199.777 15.1305 199.777C15.6909 199.777 16.8117 199.777 16.8117 198.937C16.8117 198.376 16.2513 198.376 15.9711 198.376C15.4107 198.376 14.5702 198.376 13.4494 198.096C12.6088 197.816 11.7682 197.256 11.7682 196.135C11.7682 195.014 11.7682 193.613 11.7682 192.772L14.5702 161.391C16.2513 165.033 22.9759 179.323 23.8165 180.444L24.0967 181.004C29.4203 191.371 31.3817 195.014 32.2222 196.415L32.5024 196.695C33.9034 199.217 34.1836 199.777 34.7439 199.777C35.5845 199.777 35.8648 199.217 36.9855 196.975L54.6376 160.831L57.9999 195.574C58.2801 196.695 57.9999 197.536 57.9999 197.816C57.4396 197.816 57.1593 198.096 57.1593 198.657C57.1593 199.217 57.9999 199.497 59.4009 199.777C62.2028 200.057 69.768 200.057 71.4491 200.057C73.1303 200.057 73.4105 199.497 73.4105 199.217C72.5699 198.376 72.2897 198.096 71.4491 198.096Z" fill="#86743B"/>
<path d="M92.1827 198.095C91.6224 198.095 90.2214 197.815 89.3808 197.815C87.6997 197.535 87.6997 196.694 87.4195 195.013C87.1393 192.492 87.1393 188.009 87.1393 182.405V172.038C87.1393 162.791 87.1393 159.989 87.1393 158.308C87.4195 156.067 87.6997 155.506 89.1007 155.226C89.6611 155.226 90.2215 155.226 90.5017 155.226C90.7819 155.226 91.3422 154.666 91.3422 154.385C91.3422 153.545 90.5016 153.545 89.9412 153.545C88.5403 153.545 86.0186 153.545 84.6176 153.545C84.0572 153.545 83.777 153.545 83.777 153.545C83.777 153.545 83.2166 153.545 82.6562 153.545C81.2553 153.545 78.7336 153.545 77.3326 153.545C77.0524 153.545 75.9316 153.545 75.9316 154.385C75.9316 154.666 76.2118 155.226 76.7722 155.226C77.0524 155.226 77.893 155.226 78.7336 155.506C79.8543 155.786 80.4147 156.347 80.4147 158.308C80.4147 160.27 80.4147 163.071 80.4147 172.038V182.405C80.4147 187.168 80.4147 192.492 80.1345 195.013C79.8543 196.694 79.5741 197.535 78.7336 197.815C78.1732 197.815 77.3326 198.095 76.7722 198.095C76.2118 198.095 75.9316 198.376 75.9316 198.936C75.9316 199.496 76.492 199.777 77.3326 199.777C78.7336 199.777 80.9751 199.777 82.376 199.777C82.9364 199.777 83.4969 199.777 83.4969 199.777C83.4969 199.777 83.777 199.777 84.3374 199.777C85.7384 199.777 88.8205 199.777 91.3422 199.777C92.463 199.777 92.7432 199.216 92.7432 198.936C93.0234 198.376 92.7431 198.095 92.1827 198.095Z" fill="#86743B"/>
<path d="M145.98 197.816C145.7 197.816 144.859 197.816 143.738 197.536C142.057 197.256 140.096 196.695 136.734 193.333C133.091 189.971 128.888 184.927 124.125 179.043L123.284 177.922C128.608 173.439 131.13 169.237 131.13 164.193C131.13 159.15 127.207 156.348 126.366 155.787C122.724 153.546 118.241 152.985 114.038 152.985C112.637 152.985 110.115 152.985 108.154 152.985C107.033 152.985 106.193 152.985 105.912 152.985C105.912 152.985 105.352 152.985 104.792 152.985C103.11 152.985 100.309 152.985 98.067 152.985C97.7868 152.985 96.666 152.985 96.666 153.826C96.666 154.106 97.2265 154.667 97.5066 154.667C98.067 154.667 99.1878 154.667 99.7481 154.667C101.709 154.947 101.99 155.507 101.99 157.749C102.27 159.71 102.27 161.391 102.27 170.637V181.285C102.27 187.169 102.27 191.932 101.99 194.174V194.454C101.709 196.135 101.429 196.976 100.589 197.256C100.028 197.256 99.1878 197.536 98.6274 197.536C98.067 197.536 97.7868 198.096 97.7868 198.377C97.7868 198.937 98.3472 199.217 99.1877 199.217C100.869 199.217 104.231 199.217 105.352 199.217H105.632C105.632 199.217 105.912 199.217 106.473 199.217C107.874 199.217 110.956 199.217 113.758 199.217C114.879 199.217 115.159 198.657 115.159 198.377C115.159 197.816 114.879 197.536 114.318 197.536C113.758 197.536 112.357 197.536 111.516 197.256C109.835 196.976 109.555 196.135 109.275 194.454C108.994 191.932 108.994 187.449 108.994 181.565V180.164V179.884L117.4 180.164C117.68 180.164 117.68 180.164 117.961 180.444C118.521 181.285 119.642 182.406 120.763 183.806C122.164 185.488 123.564 187.449 125.246 189.13C128.888 193.613 131.41 196.695 134.212 198.096C135.893 198.937 137.854 199.217 141.217 199.217H145.419C146.26 199.217 147.381 199.217 147.381 198.377C146.82 198.377 146.54 197.816 145.98 197.816ZM124.405 167.555C124.405 171.758 123.004 174.84 120.763 176.522C119.362 177.362 117.68 177.642 115.999 177.642C113.197 177.642 109.835 177.362 108.994 176.802C108.714 176.521 108.714 176.522 108.714 176.241V156.908C108.714 156.908 108.714 156.628 108.994 156.628C109.835 156.348 111.796 156.348 113.478 156.348C120.202 156.068 124.405 160.551 124.405 167.555Z" fill="#86743B"/>
<path d="M192.213 197.816C191.653 197.816 190.812 197.816 189.972 197.536C188.571 196.976 187.17 196.135 184.928 191.372C182.967 186.609 179.324 177.923 176.242 170.077C173.44 163.072 170.918 156.908 170.358 155.787C170.358 155.507 170.078 155.227 170.078 154.947C169.798 154.106 169.237 153.266 168.677 153.266C168.117 153.266 167.556 153.826 166.996 155.787L152.706 192.493C151.585 195.575 150.464 197.256 147.943 197.816C147.382 197.816 146.542 197.816 146.262 197.816C145.701 197.816 145.421 198.096 145.421 198.657C145.421 199.497 146.542 199.497 146.822 199.497C148.503 199.497 150.464 199.497 151.585 199.497C152.146 199.497 152.706 199.497 152.986 199.497C153.266 199.497 154.107 199.497 154.948 199.497C156.068 199.497 157.469 199.497 158.59 199.497C159.711 199.497 159.711 198.937 159.711 198.657C159.711 198.377 159.711 197.816 158.87 197.816H158.31C157.749 197.816 156.629 197.816 156.629 196.415C156.629 195.575 156.909 194.174 157.469 192.493L160.831 182.966C160.831 182.686 161.112 182.686 161.112 182.686H175.121H175.402L181.005 196.135C181.005 196.415 181.286 196.695 181.005 196.976C181.005 197.256 180.725 197.256 180.445 197.536C180.165 197.536 179.885 197.816 179.885 198.096C179.885 198.657 180.725 198.657 181.846 198.937H182.406C185.208 198.937 188.571 198.937 191.933 198.937C193.054 198.937 193.614 198.657 193.614 198.096C193.334 198.377 193.054 197.816 192.213 197.816ZM173.72 180.164H161.672L167.276 164.193C167.276 163.913 167.556 163.913 167.556 163.633C167.556 163.633 167.556 163.913 167.836 163.913L173.72 180.164Z" fill="#86743B"/>
<path d="M288.879 197.816C288.319 197.816 287.478 197.816 286.638 197.536C285.237 196.976 283.836 196.135 281.594 191.372C279.633 186.609 275.99 177.923 272.908 170.077C270.106 163.072 267.584 156.908 267.024 155.787C267.024 155.507 266.744 155.227 266.744 154.947C266.464 154.106 265.903 153.266 265.343 153.266C264.783 153.266 264.222 153.826 263.662 155.787L249.372 192.493C248.251 195.575 247.13 197.256 244.609 197.816C244.048 197.816 243.208 197.816 242.928 197.816C242.367 197.816 242.087 198.096 242.087 198.657C242.087 199.497 243.208 199.497 243.488 199.497C245.169 199.497 247.13 199.497 248.251 199.497C248.812 199.497 249.372 199.497 249.652 199.497C249.932 199.497 250.773 199.497 251.614 199.497C252.734 199.497 254.415 199.497 255.256 199.497C256.377 199.497 256.377 198.937 256.377 198.657C256.377 198.377 256.377 197.816 255.536 197.816H254.976C254.415 197.816 253.295 197.816 253.295 196.415C253.295 195.575 253.575 194.174 254.135 192.493L257.497 182.966C257.497 182.686 257.778 182.686 257.778 182.686H271.787H272.068L277.391 196.135C277.391 196.415 277.671 196.695 277.391 196.976C277.391 197.256 277.111 197.256 276.831 197.536C276.551 197.536 276.27 197.816 276.27 198.096C276.27 198.657 277.111 198.657 278.232 198.937H278.792C281.594 198.937 284.956 198.937 288.319 198.937C289.439 198.937 290 198.657 290 198.096C290 198.377 289.439 197.816 288.879 197.816ZM258.338 180.164L263.942 164.193C263.942 163.913 264.222 163.913 264.222 163.633C264.222 163.633 264.222 163.913 264.502 163.913L270.386 179.884L258.338 180.164Z" fill="#86743B"/>
<path d="M235.64 160.27C228.635 153.266 217.988 153.266 211.544 153.266H210.423C207.901 153.266 205.099 153.266 203.418 153.266C202.577 153.266 202.017 153.266 202.017 153.266C202.017 153.266 201.737 153.266 201.177 153.266C199.776 153.266 196.974 152.985 195.012 152.985C194.732 152.985 193.611 152.985 193.611 153.826C193.611 154.106 193.891 154.386 194.452 154.386C195.012 154.386 196.133 154.386 196.413 154.667C198.094 154.947 198.655 155.787 198.935 157.749C198.935 159.71 198.935 161.391 198.935 170.637V181.005C198.935 186.608 198.935 191.372 198.655 193.893C198.375 195.855 197.814 197.256 196.974 197.256C196.413 197.536 195.573 197.536 195.292 197.536C194.732 197.536 194.452 197.816 194.452 198.096C194.452 198.937 195.292 198.937 195.853 198.937C196.413 198.937 196.974 198.937 197.534 198.937C198.094 198.937 198.935 198.937 199.495 198.937C200.616 198.937 201.737 198.937 202.017 198.937H202.297V198.657C202.858 197.816 204.259 195.855 205.94 194.734L206.22 194.454L205.94 194.174C205.379 193.613 205.379 190.811 205.379 189.971C205.379 188.85 205.379 183.526 205.379 177.082V169.797C205.379 165.314 205.379 159.15 205.379 157.188C205.379 156.628 205.379 156.348 205.94 156.348C206.22 156.067 208.461 156.067 209.862 156.067C217.988 156.067 224.713 157.188 230.036 162.792C232.278 165.034 235.92 169.797 235.92 177.642C235.92 183.246 233.959 188.85 230.877 191.652C227.234 195.014 221.911 196.976 216.307 196.976C213.225 196.976 212.664 196.976 210.983 196.415C209.302 196.695 207.621 197.536 205.94 198.657L205.099 199.217H206.22C207.061 199.217 208.181 199.497 209.302 199.497C212.945 199.777 214.065 199.777 216.307 199.777C224.432 199.777 230.877 197.536 235.64 192.773C240.123 188.29 242.365 182.125 242.365 175.681C241.804 167.836 238.442 163.072 235.64 160.27Z" fill="#86743B"/>
<path d="M212.386 33.9032C212.946 33.9032 213.227 33.9032 213.787 33.9032C237.323 35.8646 260.299 30.8211 280.193 20.7342C275.99 22.6955 272.347 24.0965 269.545 24.9371C259.458 28.8598 247.69 30.8211 235.082 30.8211C206.502 30.2608 189.971 25.4975 177.642 10.6473L174.28 6.44441L169.517 0C175.681 14.8502 183.806 24.0965 196.975 30.5409C200.618 31.6617 204.541 32.7825 208.183 33.3428C209.304 33.3428 210.985 33.6231 212.386 33.9032Z" fill="#ACCF90"/>
<path d="M210.704 43.7098C214.346 43.99 217.989 43.99 221.631 43.99C221.911 43.99 221.911 43.99 222.192 43.99C242.926 40.0673 263.1 31.6615 283.554 18.7727C282.713 19.3331 281.592 19.8935 280.752 20.4539C280.471 20.4539 280.471 20.734 280.191 20.734C260.578 30.821 237.322 35.8644 213.786 33.9031C213.225 33.9031 212.945 33.9031 212.385 33.9031C210.984 33.6229 209.303 33.6229 207.902 33.3427C204.259 32.7823 200.337 31.6615 196.694 30.5408C177.361 24.6567 157.747 12.8887 152.984 9.52635C150.462 7.56501 145.139 2.80176 145.139 2.80176C157.187 26.0577 179.322 41.1881 210.704 43.7098Z" fill="#589F53"/>
<path d="M289.719 14.5698L287.757 15.9708C265.902 30.5408 244.328 39.5069 222.192 43.99C221.912 43.99 221.912 43.99 221.632 43.99C207.903 46.5117 194.173 47.3523 181.284 46.5117C181.004 46.5117 181.004 46.5117 180.724 46.5117C179.883 46.5117 178.763 46.5117 177.922 46.2316C177.081 46.2316 176.521 46.2315 175.681 45.9513C175.4 45.9513 174.84 45.9513 174.56 45.9513C173.439 45.9513 172.318 45.6712 171.478 45.6712C171.197 45.6712 170.917 45.6712 170.637 45.6712C170.357 45.6712 169.796 45.6712 169.516 45.6712C153.825 43.99 138.415 40.0673 125.526 36.1446C112.637 32.2219 101.149 27.4587 90.7822 23.2558C88.2605 22.135 85.4586 21.0143 83.2171 20.1737C30.8212 -1.96151 0 14.5698 0 14.5698C28.2994 8.12541 62.2026 21.5746 82.3765 30.821C100.589 39.2267 119.082 47.6325 138.135 53.7967C158.309 60.2412 177.922 62.2025 198.936 59.4006C225.555 55.7581 251.893 46.5117 273.468 29.9804C276.269 28.0191 279.071 25.4973 281.593 23.2558C281.873 23.2558 281.873 22.9756 282.154 22.9756C284.115 21.2944 285.796 19.6133 287.477 17.6519C287.757 17.3717 288.038 17.0916 288.038 16.8114C288.598 16.251 288.878 15.6906 289.158 15.4104L289.719 14.5698Z" fill="#814486"/>
<path d="M86.5783 128.608C86.0179 128.608 84.6169 128.608 83.7763 128.328C82.0952 128.048 82.0952 127.207 81.815 125.526C81.5349 123.004 81.5348 118.521 81.5348 112.918V102.55C81.5348 93.5842 81.5348 90.5021 81.5348 88.821C81.815 86.5794 82.0953 86.2992 83.4962 86.019C84.0566 86.019 84.617 86.019 84.8972 86.019C85.1774 86.019 85.7377 85.4586 85.7377 85.1785C85.7377 84.3379 84.8971 84.3379 84.3368 84.3379C82.9358 84.3379 80.4141 84.3379 79.0131 84.3379C78.4527 84.3379 78.1725 84.3379 78.1725 84.3379C78.1725 84.3379 77.6121 84.3379 77.0517 84.3379C75.6508 84.3379 73.1291 84.3379 71.7281 84.3379C71.4479 84.3379 70.3271 84.3379 70.3271 85.1785C70.3271 85.4586 70.6073 86.019 71.1677 86.019C71.4479 86.019 72.2885 86.019 73.1291 86.2992C74.2498 86.5794 74.8102 87.1398 74.8102 89.1011C74.8102 91.0625 74.8102 93.8644 74.8102 102.831V113.198C74.8102 117.961 74.8102 123.285 74.53 125.806C74.2498 127.487 73.9696 128.328 73.1291 128.608C72.5687 128.608 71.7281 128.888 71.1677 128.888C70.6073 128.888 70.3271 129.169 70.3271 129.729C70.3271 130.289 70.8875 130.57 71.7281 130.57C73.1291 130.57 75.3706 130.57 76.7715 130.289C77.3319 130.289 77.8924 130.289 77.8924 130.289C77.8924 130.289 78.1725 130.289 78.4527 130.289C79.8537 130.289 82.9358 130.57 85.7377 130.57C86.8585 130.57 87.1387 130.009 87.1387 129.729C87.4189 128.888 87.1386 128.608 86.5783 128.608Z" fill="#86743B"/>
<path d="M16.2512 128.608C15.6908 128.608 14.2899 128.608 13.4493 128.328C11.7681 128.048 11.7681 127.207 11.4879 125.526C11.2077 123.004 11.2077 118.521 11.2077 112.918V102.55C11.2077 93.5842 11.2077 90.5021 11.2077 88.821C11.4879 86.5794 11.7681 86.2992 13.1691 86.019C13.7295 86.019 14.2898 86.019 14.57 86.019C14.8502 86.019 15.4106 85.4586 15.4106 85.1785C15.4106 84.3379 14.57 84.3379 14.0096 84.3379C12.6086 84.3379 10.0869 84.3379 8.68597 84.3379C8.12559 84.3379 7.84543 84.3379 7.84543 84.3379C7.84543 84.3379 7.28498 84.3379 6.72459 84.3379C5.32363 84.3379 2.80192 84.3379 1.40096 84.3379C1.12077 84.3379 0 84.3379 0 85.1785C0 85.4586 0.280243 86.019 0.840628 86.019C1.12082 86.019 1.96135 86.019 2.80192 86.2992C3.92269 86.5794 4.48309 87.1398 4.48309 89.1011C4.48309 91.0625 4.48309 93.8644 4.48309 102.831V113.198C4.48309 117.961 4.48307 123.285 4.20288 125.806C3.92269 127.487 3.6425 128.328 2.80192 128.608C2.24154 128.608 1.40101 128.888 0.840628 128.888C0.280243 128.888 0 129.169 0 129.729C0 130.289 0.560384 130.57 1.40096 130.57C2.80192 130.57 5.04351 130.57 6.44447 130.289C7.00486 130.289 7.56522 130.289 7.56522 130.289C7.56522 130.289 7.84536 130.289 8.12556 130.289C9.52652 130.289 12.6086 130.57 15.4106 130.57C16.5313 130.57 16.8115 130.009 16.8115 129.729C17.0917 128.888 16.8116 128.608 16.2512 128.608Z" fill="#86743B"/>
<path d="M57.7192 90.7821C50.4342 83.7773 39.7869 83.7773 33.3425 83.7773H32.2217C29.7 83.7773 27.4585 83.7773 25.7773 83.7773C26.8981 85.1783 28.299 86.0189 29.4198 86.2991C29.9802 86.2991 30.8208 86.2991 31.3812 86.2991C39.5068 86.2991 46.2313 87.4199 51.8352 93.0237C54.0767 95.2652 57.7192 100.029 57.7192 107.874C57.7192 113.478 55.7579 119.082 52.6758 121.883C49.0333 125.246 43.7096 127.207 37.8256 127.207C34.7435 127.207 34.1831 127.207 32.5019 126.647C30.8208 126.927 29.1397 127.768 27.4585 128.888L26.6179 129.449H27.7386C28.5792 129.449 29.7 129.729 31.101 129.729C34.7435 130.009 36.1444 130.009 38.1058 130.009C46.2314 130.009 52.9559 127.487 57.439 123.004C61.9221 118.521 64.4438 112.357 64.4438 105.913C63.8834 98.6276 60.5212 93.5841 57.7192 90.7821Z" fill="#86743B"/>
<path d="M119.083 136.174H117.402C116.561 136.174 116.001 136.734 116.001 137.575V140.937C116.001 141.778 116.561 142.338 117.402 142.338H120.764C121.605 142.338 122.165 141.778 122.165 140.937V139.256C122.165 137.575 120.764 136.174 119.083 136.174Z" fill="#86743B"/>
<path d="M131.129 136.174H129.168C128.327 136.174 127.767 136.734 127.767 137.575V140.937C127.767 141.778 128.327 142.338 129.168 142.338H132.53C133.37 142.338 133.931 141.778 133.931 140.937V139.256C133.931 137.575 132.53 136.174 131.129 136.174Z" fill="#86743B"/>
<path d="M283.834 91.0624C276.829 84.0576 266.181 84.0576 259.737 84.0576H258.616C256.095 84.0576 253.293 84.0576 251.611 84.0576C250.771 84.0576 250.21 84.0576 250.21 84.0576C250.21 84.0576 249.93 84.0576 249.37 84.0576C247.969 84.0576 245.167 83.7773 243.206 83.7773C242.925 83.7773 241.805 83.7774 241.805 84.6179C241.805 84.8981 242.085 85.1783 242.645 85.1783C243.206 85.1783 244.326 85.1783 244.607 85.4585C246.288 85.7387 246.848 86.5793 247.128 88.5406C247.128 90.502 247.128 92.1831 247.128 101.429V111.797C247.128 116.84 247.128 121.323 246.848 123.845H147.94C147.66 121.323 147.66 117.4 147.66 112.637V102.27C147.66 93.3039 147.66 90.2218 147.66 88.5406C147.94 86.2991 148.22 86.0189 149.621 85.7387C150.182 85.7387 150.742 85.7387 151.022 85.7387C151.303 85.7387 151.863 85.1783 151.863 84.8981C151.863 84.0575 151.022 84.0576 150.462 84.0576C149.061 84.0576 146.539 84.0576 145.138 84.0576C144.578 84.0576 144.298 84.0576 144.298 84.0576C144.298 84.0576 143.737 84.0576 143.177 84.0576C141.776 84.0576 139.254 84.0576 137.853 84.0576C137.573 84.0576 136.452 84.0575 136.452 84.8981C136.452 85.1783 136.733 85.7387 137.293 85.7387C137.573 85.7387 138.414 85.7387 139.254 86.0189C140.375 86.2991 140.936 86.8595 140.936 88.8208C140.936 90.7822 140.936 93.5841 140.936 102.55V112.917C140.936 117.12 140.936 121.323 140.655 124.125H103.95C103.95 121.603 103.95 117.681 103.95 112.917V102.55C103.95 93.5841 103.95 90.502 103.95 88.8208C104.23 86.5793 104.511 86.2991 105.912 86.0189C106.472 86.0189 107.032 86.0189 107.312 86.0189C107.593 86.0189 108.153 85.4585 108.153 85.1783C108.153 84.3377 107.312 84.3377 106.752 84.3377C105.351 84.3377 102.829 84.3377 101.428 84.3377C100.868 84.3377 100.588 84.3377 100.588 84.3377C100.588 84.3377 100.027 84.3377 99.467 84.3377C98.0661 84.3377 95.5444 84.3377 94.1434 84.3377C93.8632 84.3377 92.7424 84.3377 92.7424 85.1783C92.7424 85.4585 93.0226 86.0189 93.583 86.0189C93.8632 86.0189 94.7038 86.0189 95.5444 86.2991C96.6651 86.5793 97.2255 87.1397 97.2255 89.101C97.2255 91.0623 97.2255 93.8643 97.2255 102.83V113.198C97.2255 113.198 97.2255 113.198 97.2255 113.478C97.2255 116.84 97.2255 126.647 97.2255 131.69C97.2255 132.251 96.9453 132.811 96.6651 133.371C94.1434 140.096 87.6989 144.299 80.9743 143.738C80.6941 143.738 80.6942 143.738 80.414 143.738H80.1338C80.1338 143.738 80.1338 143.738 80.414 143.738C80.414 143.738 80.6942 143.738 80.6942 144.019C80.6942 144.019 80.9743 144.019 80.9743 144.299C80.9743 144.299 81.2545 144.299 81.2545 144.579C81.2545 144.579 81.5347 144.579 81.5347 144.859C81.8149 144.859 81.815 144.859 82.0952 145.139C90.2207 147.941 99.1868 143.738 102.269 135.613C102.829 134.212 103.11 131.69 103.11 130.85H242.365C242.365 130.85 242.365 130.85 242.645 130.85H248.81V130.569L249.09 130.289C249.65 129.449 250.771 127.768 252.452 126.647L252.732 126.367L252.452 126.086C251.892 125.526 251.892 122.724 251.892 121.883C251.892 120.763 251.892 115.439 251.892 108.995V101.71C251.892 97.2266 251.892 91.0623 251.892 89.101C251.892 88.5406 251.892 88.2604 252.452 88.2604C252.732 87.9802 254.974 87.9802 256.375 87.9802C264.5 87.9802 271.225 89.101 276.549 94.7048C278.79 96.9464 282.433 101.71 282.433 109.555C282.433 115.159 280.471 120.763 277.389 123.565C273.747 126.927 268.423 128.888 262.819 128.888C259.737 128.888 259.177 128.888 257.495 128.328C255.814 128.608 254.133 129.449 252.452 130.569L251.611 131.13H252.732C253.573 131.13 254.694 131.41 255.814 131.41C259.457 131.69 260.578 131.69 262.819 131.69C270.945 131.69 277.389 129.449 282.152 124.685C286.635 120.202 288.877 114.038 288.877 107.594C289.998 98.6275 286.635 93.5841 283.834 91.0624Z" fill="#86743B"/>
</svg>
