<svg width="44" height="44" viewBox="0 0 44 44" fill="none" xmlns="http://www.w3.org/2000/svg">
<path d="M1 4.6001H7.40001L12.4 34.6001H40.4L43.5 17.2001L9.5 17.1001" stroke="#814486" stroke-miterlimit="10" stroke-linecap="round" stroke-linejoin="round"/>
<path d="M10.6001 23.9001C10.6001 23.9001 14.8001 27.9001 17.2001 27.6001C19.6001 27.8001 20.9001 24.7001 26.6001 24.7001C32.3001 24.7001 30.6001 27.7001 35.7001 27.7001C40.9001 27.7001 41.9001 26.2001 41.9001 26.2001" stroke="#814486" stroke-miterlimit="10" stroke-linecap="round" stroke-linejoin="round"/>
<path d="M15.4 43.0002C17.0016 43.0002 18.3 41.7018 18.3 40.1002C18.3 38.4986 17.0016 37.2002 15.4 37.2002C13.7984 37.2002 12.5 38.4986 12.5 40.1002C12.5 41.7018 13.7984 43.0002 15.4 43.0002Z" stroke="#814486" stroke-miterlimit="10" stroke-linecap="round" stroke-linejoin="round"/>
<path d="M37.5001 43.0002C39.1017 43.0002 40.4001 41.7018 40.4001 40.1002C40.4001 38.4986 39.1017 37.2002 37.5001 37.2002C35.8985 37.2002 34.6001 38.4986 34.6001 40.1002C34.6001 41.7018 35.8985 43.0002 37.5001 43.0002Z" stroke="#814486" stroke-miterlimit="10" stroke-linecap="round" stroke-linejoin="round"/>
<path d="M15.3999 35V37.1" stroke="#814486" stroke-miterlimit="10" stroke-linecap="round" stroke-linejoin="round"/>
<path d="M37.5 35V36.9" stroke="#814486" stroke-miterlimit="10" stroke-linecap="round" stroke-linejoin="round"/>
<path d="M27.2999 3.9001C28.0731 3.9001 28.6999 3.2733 28.6999 2.5001C28.6999 1.7269 28.0731 1.1001 27.2999 1.1001C26.5267 1.1001 25.8999 1.7269 25.8999 2.5001C25.8999 3.2733 26.5267 3.9001 27.2999 3.9001Z" stroke="#814486" stroke-miterlimit="10" stroke-linecap="round" stroke-linejoin="round"/>
<path d="M16.7002 14.7C16.7002 8.8 21.5002 4 27.4002 4C33.3002 4 38.1002 8.7 38.1002 14.7" stroke="#814486" stroke-miterlimit="10" stroke-linecap="round" stroke-linejoin="round"/>
<path d="M38.4 17.0001H16.3C15.6 17.0001 15 16.4001 15 15.7001C15 15.0001 15.6 14.4001 16.3 14.4001H38.4C39.1 14.4001 39.7 15.0001 39.7 15.7001C39.7 16.4001 39.2 17.0001 38.4 17.0001Z" stroke="#814486" stroke-miterlimit="10" stroke-linecap="round" stroke-linejoin="round"/>
</svg>
