<svg width="23" height="19" viewBox="0 0 23 19" fill="none" xmlns="http://www.w3.org/2000/svg">
<path fill-rule="evenodd" clip-rule="evenodd" d="M9.56551 0.446425C9.12064 0.554274 8.71829 0.872326 8.51066 1.28027C8.41051 1.47701 8.3904 1.58553 8.39206 1.91997C8.39422 2.36142 8.4806 2.60076 8.75287 2.91985C8.9316 3.12935 9.3932 3.36997 9.70039 3.4138L9.93338 3.44707V3.77341C9.93338 4.08833 9.92916 4.09971 9.81286 4.09971C9.60342 4.09971 8.40124 4.41691 7.91938 4.59934C4.94285 5.72617 2.67954 8.17571 1.89343 11.1212C1.68193 11.9136 1.59727 12.5421 1.5624 13.5781C1.51281 15.0494 1.50982 15.0458 2.77886 15.0458H3.65512V15.3034V15.5611L2.41663 15.5759C1.24559 15.5899 1.16481 15.5966 0.932906 15.6996C0.0932376 16.0727 -0.251233 17.0669 0.198202 17.8206C0.359965 18.0918 0.700463 18.3797 0.984848 18.4857C1.22043 18.5735 1.51443 18.576 11.5275 18.576H21.8277L22.0862 18.4631C22.6202 18.23 23 17.6565 23 17.0833C23 16.5102 22.6202 15.9367 22.0862 15.7036C21.8394 15.5958 21.7717 15.59 20.5892 15.5759L19.3508 15.5611V15.3034V15.0458H20.227C21.4961 15.0458 21.4931 15.0494 21.4435 13.5781C21.4264 13.0692 21.3772 12.4293 21.3343 12.1561C20.7945 8.72411 18.431 5.86548 15.0865 4.59934C14.6046 4.41691 13.4025 4.09971 13.193 4.09971C13.0767 4.09971 13.0725 4.08833 13.0725 3.77341V3.44707L13.304 3.41352C13.5638 3.37589 13.9174 3.21663 14.1364 3.0386C14.2167 2.97335 14.3574 2.78556 14.4491 2.62133C14.6013 2.34867 14.6157 2.28783 14.6157 1.91997C14.6157 1.55183 14.6013 1.49142 14.4484 1.21748C14.2678 0.893934 14.0616 0.702686 13.7117 0.534278C13.4936 0.429319 13.4542 0.427186 11.601 0.419036C10.5624 0.414487 9.64644 0.426807 9.56551 0.446425ZM13.2943 1.47346C13.4441 1.54217 13.612 1.77815 13.612 1.91997C13.612 2.0618 13.4441 2.29778 13.2943 2.36649C13.0511 2.47794 9.95476 2.47794 9.71158 2.36649C9.56178 2.29778 9.39384 2.0618 9.39384 1.91997C9.39384 1.78289 9.5608 1.54335 9.70388 1.47516C9.9374 1.3639 13.0521 1.36243 13.2943 1.47346ZM12.0328 3.68508L12.018 3.93386H11.5029H10.9879L10.9731 3.68508L10.9583 3.43631H11.5029H12.0476L12.0328 3.68508ZM12.4245 5.00302C15.4993 5.32827 18.0937 7.08116 19.4963 9.78118C20.05 10.8469 20.3808 12.2202 20.3808 13.4526V14.0507H11.5029H2.62509V13.4526C2.62509 10.482 4.27936 7.71494 6.99363 6.14562C8.57168 5.23322 10.5887 4.80883 12.4245 5.00302ZM18.311 15.3182L18.3259 15.567H11.5055H4.68515V15.338C4.68515 15.212 4.69996 15.0947 4.71801 15.0772C4.73611 15.0597 7.79857 15.0508 11.5235 15.0574L18.2962 15.0695L18.311 15.3182ZM21.6267 16.6282C21.8376 16.7133 21.9504 16.8718 21.9504 17.0833C21.9504 17.2949 21.8376 17.4534 21.6267 17.5385C21.3816 17.6375 1.6243 17.6375 1.3792 17.5385C1.16824 17.4534 1.05553 17.2949 1.05553 17.0833C1.05553 16.8759 1.16662 16.715 1.36836 16.6302C1.60022 16.5327 21.3853 16.5307 21.6267 16.6282Z" fill="white"/>
</svg>
